# xmcd
#
# Track frame offsets: 
#        150
#        20840
#        35471
#        50880
#        69153
#        84936
#        102579
#        126666
#        146507
#        163222
#
# Disc length: 2764 seconds
#
# Revision: 0
# Processed by: cddbd v1.5.2PL0 Copyright (c) Steve Scherf et al.
# Submitted via: ExactAudioCopy v1.0b1
#
DISCID=920aca0a
DTITLE=Kelli Scarr - Dangling Teeth
DYEAR=2012
DGENRE=Country
TTITLE0=Dangling Teeth
TTITLE1=You Could Be So Great
TTITLE2=Our Joy
TTITLE3=Thank You
TTITLE4=Phoenicia
TTITLE5=Airon
TTITLE6=Trouble
TTITLE7=It Ain't Me
TTITLE8=400 Days
TTITLE9=I'll Always Wait
EXTD=
EXTT0=
EXTT1=
EXTT2=
EXTT3=
EXTT4=
EXTT5=
EXTT6=
EXTT7=
EXTT8=
EXTT9=
PLAYORDER=
